HIERARCHY
ROOT Hips
{
	OFFSET 0.00000 0.00000 0.00000
	CHANNELS 6 Xposition Yposition Zposition Zrotation Yrotation Xrotation 
	JOINT LHipJoint
	{
		OFFSET 0 0 0
		CHANNELS 3 Zrotation Yrotation Xrotation
		JOINT LeftUpLeg
		{
			OFFSET 1.34019 -1.87553 0.90315
			CHANNELS 3 Zrotation Yrotation Xrotation
			JOINT LeftLeg
			{
				OFFSET 2.55316 -7.01474 0.00000
				CHANNELS 3 Zrotation Yrotation Xrotation
				JOINT LeftFoot
				{
					OFFSET 2.64657 -7.27139 0.00000
					CHANNELS 3 Zrotation Yrotation Xrotation
					JOINT LeftToeBase
					{
						OFFSET 0.24207 -0.66507 2.14489
						CHANNELS 3 Zrotation Yrotation Xrotation
						End Site
						{
							OFFSET 0.00000 -0.00000 1.12451
						}
					}
				}
			}
		}
	}
	JOINT RHipJoint
	{
		OFFSET 0 0 0
		CHANNELS 3 Zrotation Yrotation Xrotation
		JOINT RightUpLeg
		{
			OFFSET -1.28320 -1.87553 0.90315
			CHANNELS 3 Zrotation Yrotation Xrotation
			JOINT RightLeg
			{
				OFFSET -2.60484 -7.15674 0.00000
				CHANNELS 3 Zrotation Yrotation Xrotation
				JOINT RightFoot
				{
					OFFSET -2.60296 -7.15159 0.00000
					CHANNELS 3 Zrotation Yrotation Xrotation
					JOINT RightToeBase
					{
						OFFSET -0.31082 -0.85398 2.28998
						CHANNELS 3 Zrotation Yrotation Xrotation
						End Site
						{
							OFFSET -0.00000 -0.00000 1.21611
						}
					}
				}
			}
		}
	}
	JOINT LowerBack
	{
		OFFSET 0 0 0
		CHANNELS 3 Zrotation Yrotation Xrotation
		JOINT Spine
		{
			OFFSET -0.00160 2.05581 -0.15156
			CHANNELS 3 Zrotation Yrotation Xrotation
			JOINT Spine1
			{
				OFFSET 0.04594 2.06326 -0.01617
				CHANNELS 3 Zrotation Yrotation Xrotation
				JOINT Neck
				{
					OFFSET 0 0 0
					CHANNELS 3 Zrotation Yrotation Xrotation
					JOINT Neck1
					{
						OFFSET 0.03753 1.73883 0.26751
						CHANNELS 3 Zrotation Yrotation Xrotation
						JOINT Head
						{
							OFFSET -0.09795 1.76129 -0.31794
							CHANNELS 3 Zrotation Yrotation Xrotation
							End Site
							{
								OFFSET -0.03611 1.79987 -0.13846
							}
						}
					}
				}
				JOINT LeftShoulder
				{
					OFFSET 0 0 0
					CHANNELS 3 Zrotation Yrotation Xrotation
					JOINT LeftArm
					{
						OFFSET 3.30667 1.29205 -0.22445
						CHANNELS 3 Zrotation Yrotation Xrotation
						JOINT LeftForeArm
						{
							OFFSET 4.92785 -0.00000 -0.00000
							CHANNELS 3 Zrotation Yrotation Xrotation
							JOINT LeftHand
							{
								OFFSET 3.44052 -0.00000 0.00000
								CHANNELS 3 Zrotation Yrotation Xrotation
								JOINT LeftFingerBase
								{
									OFFSET 0 0 0
									CHANNELS 3 Zrotation Yrotation Xrotation
									JOINT LeftHandIndex1
									{
										OFFSET 0.65433 -0.00000 0.00000
										CHANNELS 3 Zrotation Yrotation Xrotation
										End Site
										{
											OFFSET 0.52753 -0.00000 0.00000
										}
									}
								}
								JOINT LThumb
								{
									OFFSET 0 0 0
									CHANNELS 3 Zrotation Yrotation Xrotation
									End Site
									{
										OFFSET 0.53559 -0.00000 0.53559
									}
								}
							}
						}
					}
				}
				JOINT RightShoulder
				{
					OFFSET 0 0 0
					CHANNELS 3 Zrotation Yrotation Xrotation
					JOINT RightArm
					{
						OFFSET -3.20032 1.49783 -0.27688
						CHANNELS 3 Zrotation Yrotation Xrotation
						JOINT RightForeArm
						{
							OFFSET -5.09181 -0.00000 -0.00000
							CHANNELS 3 Zrotation Yrotation Xrotation
							JOINT RightHand
							{
								OFFSET -3.49865 -0.00000 -0.00000
								CHANNELS 3 Zrotation Yrotation Xrotation
								JOINT RightFingerBase
								{
									OFFSET 0 0 0
									CHANNELS 3 Zrotation Yrotation Xrotation
									JOINT RightHandIndex1
									{
										OFFSET -0.66641 -0.00000 0.00000
										CHANNELS 3 Zrotation Yrotation Xrotation
										End Site
										{
											OFFSET -0.53728 -0.00000 0.00000
										}
									}
								}
								JOINT RThumb
								{
									OFFSET 0 0 0
									CHANNELS 3 Zrotation Yrotation Xrotation
									End Site
									{
										OFFSET -0.54548 -0.00000 0.54548
									}
								}
							}
						}
					}
				}
			}
		}
	}
}
MOTION
Frames: 11
Frame Time: .0083333
-0.274 17.9847 -22.9416 0 0 0 0 0 0 -21 0 0 0 0 0 0 0 0 0 0 0 0 0 0 21 0 0 0 0 0 0 0 0 0 0 0 0 0 0 0 0 0 0 0 0 0 0 -16 0 0 21 0 0 11 0 0 0 -8 0 0 0 0 0 0 0 0 0 0 0 0 0 0 0 0 0 0 0 0 8 0 0 0 0 0 0 0 0 0 0 0 0 0 0 0 0 0
-0.2740 17.9847 -22.9416 -0.9067 47.5719 0.7246 0.0000 0.0000 0.0000 -14.1546 -20.1096 -8.9940 1.9125 8.6814 24.8036 -0.1419 -13.4745 -7.5831 0.3536 -3.8206 -10.5724 0.0000 0.0000 0.0000 22.6040 -15.6852 -3.4070 -1.3379 -7.3237 20.6781 2.8130 -33.8947 -34.1461 -0.0325 -1.1642 3.2008 5.4052 9.3894 5.1550 0.2779 12.8825 -1.0840 -3.4903 6.3215 -2.8617 17.7162 20.2511 4.5897 -12.2583 29.4856 11.0030 -3.9319 14.8263 7.0370 0.0000 0.0000 0.0000 -81.4558 4.8006 23.8059 17.7393 -27.8221 -4.4269 -0.0000 0.0000 -8.5803 10.3134 1.1320 0.2060 -7.1250 0.0000 -0.0000 -12.8818 30.9734 4.5170 0.0000 0.0000 0.0000 83.4301 -4.7179 1.7000 -12.6413 20.7594 -2.3246 0.0000 -0.0000 -5.3967 -16.1530 -1.5032 0.4353 7.1250 -0.0000 -0.0000 8.3257 -31.4773 2.7790
-0.2735 17.9855 -22.9403 -0.9022 47.4877 0.7454 0.0000 0.0000 0.0000 -14.1464 -20.0581 -9.0061 1.9119 8.6801 24.7996 -0.1370 -13.4301 -7.6153 0.3464 -3.7816 -10.4631 0.0000 0.0000 0.0000 22.6021 -15.6272 -3.3906 -1.3358 -7.3182 20.6617 2.7895 -33.8411 -34.1715 -0.0320 -1.1540 3.1725 5.3780 9.4209 5.1608 0.2309 12.9218 -1.0947 -3.5266 6.3409 -2.8674 17.8934 20.1748 4.5727 -12.3598 29.4119 11.0881 -3.9807 14.7911 7.0987 -0.0000 0.0000 0.0000 -81.4052 4.7290 23.8735 17.5995 -27.6413 -4.3618 -0.0000 0.0000 -8.5087 9.9978 1.0138 0.1787 -7.1250 0.0000 -0.0000 -13.1116 30.8490 4.6416 -0.0000 0.0000 0.0000 83.5642 -4.7038 1.5026 -12.6544 20.7788 -2.3293 0.0000 -0.0000 -5.4429 -16.1553 -1.4693 0.4256 7.1250 -0.0000 -0.0000 8.3206 -31.4424 2.7843
-0.2713 17.9854 -22.9378 -0.9457 47.3938 0.7066 0.0000 0.0000 0.0000 -14.1147 -20.0006 -8.9807 1.9119 8.6801 24.7998 -0.1305 -13.3773 -7.6617 0.3534 -3.8193 -10.5688 0.0000 0.0000 0.0000 22.6230 -15.5955 -3.3454 -1.3331 -7.3112 20.6407 2.7817 -33.8104 -34.1507 -0.0322 -1.1590 3.1865 5.3941 9.4770 5.1868 0.1707 12.9981 -1.1186 -3.6038 6.3772 -2.8824 18.0962 20.1298 4.4869 -12.3380 29.3079 10.9689 -4.0048 14.7416 7.0837 -0.0000 0.0000 0.0000 -81.2613 4.7310 24.1338 17.5175 -27.5349 -4.3238 -0.0000 0.0000 -8.5877 10.0374 1.0979 0.1943 -7.1250 0.0000 -0.0000 -13.0926 30.9331 4.6074 -0.0000 0.0000 0.0000 83.8008 -4.7216 1.1500 -12.6856 20.8248 -2.3403 0.0000 -0.0000 -5.5645 -16.3474 -1.3435 0.3940 7.1250 -0.0000 -0.0000 8.1561 -31.3167 2.7531
-0.2698 17.9864 -22.9379 -0.9815 47.3217 0.7053 0.0000 0.0000 0.0000 -14.0827 -19.9817 -8.9976 1.9117 8.6796 24.7982 -0.1255 -13.3215 -7.6849 0.3419 -3.7575 -10.3953 0.0000 0.0000 0.0000 22.6421 -15.5543 -3.3579 -1.3310 -7.3055 20.6238 2.7994 -33.8125 -34.0437 -0.0313 -1.1426 3.1412 5.4362 9.4770 5.2190 0.1369 13.0021 -1.1311 -3.6656 6.3775 -2.8959 18.1102 20.1398 4.4705 -12.3664 29.3079 10.8779 -4.0157 14.7398 7.0632 0.0000 -0.0000 0.0000 -81.2899 4.6550 24.0059 17.3418 -27.3062 -4.2430 -0.0000 0.0000 -8.2049 9.8996 1.0024 0.1749 -7.1250 0.0000 -0.0000 -13.1865 30.8354 4.6738 0.0000 -0.0000 0.0000 83.8955 -4.6923 1.1244 -12.6744 20.8083 -2.3363 0.0000 -0.0000 -5.5751 -16.4131 -1.1930 0.3514 7.1250 -0.0000 -0.0000 8.0898 -31.1626 2.7605
-0.2683 17.9870 -22.9371 -1.0058 47.2433 0.7023 0.0000 0.0000 0.0000 -14.0611 -19.9564 -8.9987 1.9118 8.6798 24.7987 -0.1193 -13.2595 -7.7191 0.3337 -3.7127 -10.2698 0.0000 0.0000 0.0000 22.6533 -15.5163 -3.3492 -1.3287 -7.2996 20.6062 2.7992 -33.7916 -33.9968 -0.0309 -1.1347 3.1194 5.4502 9.4930 5.2432 0.1040 13.0253 -1.1461 -3.7119 6.3876 -2.9120 18.1645 20.1263 4.4618 -12.3874 29.2754 10.7879 -4.0346 14.7242 7.0416 -0.0000 -0.0000 0.0000 -81.2783 4.6275 24.0150 17.2132 -27.1380 -4.1841 -0.0000 0.0000 -8.0166 9.8028 0.9653 0.1668 -7.1250 0.0000 -0.0000 -13.2567 30.7965 4.7126 -0.0000 -0.0000 0.0000 84.0181 -4.6824 0.9961 -12.6790 20.8151 -2.3380 0.0000 -0.0000 -5.6070 -16.4024 -1.1400 0.3356 7.1250 -0.0000 -0.0000 8.0933 -31.1077 2.7725
-0.2668 17.9875 -22.9364 -1.0296 47.1696 0.6995 0.0000 0.0000 0.0000 -14.0408 -19.9338 -8.9985 1.9115 8.6792 24.7968 -0.1134 -13.1972 -7.7509 0.3254 -3.6666 -10.1406 0.0000 0.0000 0.0000 22.6640 -15.4789 -3.3449 -1.3274 -7.2962 20.5960 2.7993 -33.7743 -33.9565 -0.0305 -1.1265 3.0968 5.4606 9.5043 5.2652 0.0804 13.0422 -1.1584 -3.7465 6.3948 -2.9277 18.1784 20.1215 4.4631 -12.4017 29.2540 10.6882 -4.0480 14.7137 7.0099 -0.0000 -0.0000 0.0000 -81.2938 4.6062 23.9909 17.0882 -26.9739 -4.1273 -0.0000 0.0000 -7.8100 9.7082 0.9382 0.1605 -7.1250 0.0000 -0.0000 -13.3265 30.7676 4.7482 -0.0000 -0.0000 0.0000 84.1261 -4.6720 0.8897 -12.6853 20.8244 -2.3402 0.0000 -0.0000 -5.6399 -16.3106 -1.1431 0.3345 7.1250 -0.0000 -0.0000 8.1662 -31.1092 2.7976
-0.2653 17.9880 -22.9357 -1.0464 47.1043 0.7018 0.0000 0.0000 0.0000 -14.0256 -19.9106 -9.0009 1.9112 8.6787 24.7954 -0.1082 -13.1438 -7.7794 0.3177 -3.6231 -10.0187 0.0000 0.0000 0.0000 22.6701 -15.4460 -3.3427 -1.3263 -7.2932 20.5870 2.7995 -33.7598 -33.9218 -0.0299 -1.1160 3.0681 5.4621 9.5085 5.2822 0.0641 13.0488 -1.1687 -3.7680 6.3972 -2.9431 18.1591 20.1233 4.4757 -12.4154 29.2452 10.5965 -4.0573 14.7092 6.9761 0.0000 0.0000 0.0000 -81.3359 4.5925 23.9332 16.9697 -26.8178 -4.0737 -0.0000 0.0000 -7.6040 9.6079 0.9227 0.1562 -7.1250 0.0000 -0.0000 -13.4024 30.7500 4.7824 0.0000 0.0000 0.0000 84.2191 -4.6593 0.8074 -12.6919 20.8341 -2.3426 0.0000 -0.0000 -5.6660 -16.1641 -1.1895 0.3447 7.1250 -0.0000 -0.0000 8.2866 -31.1544 2.8306
-0.2637 17.9885 -22.9348 -1.0572 47.0455 0.7067 0.0000 0.0000 0.0000 -14.0165 -19.8921 -8.9989 1.9111 8.6784 24.7943 -0.1029 -13.0896 -7.8091 0.3130 -3.5967 -9.9447 0.0000 0.0000 0.0000 22.6720 -15.4186 -3.3384 -1.3252 -7.2904 20.5785 2.7975 -33.7433 -33.8967 -0.0294 -1.1076 3.0448 5.4517 9.5074 5.2904 0.0552 13.0471 -1.1755 -3.7739 6.3959 -2.9551 18.1382 20.1240 4.4780 -12.4323 29.2412 10.5470 -4.0635 14.7063 6.9587 -0.0000 -0.0000 0.0000 -81.3834 4.6038 23.8923 16.8749 -26.6926 -4.0310 -0.0000 0.0000 -7.4670 9.4913 0.9281 0.1552 -7.1250 0.0000 -0.0000 -13.4938 30.7526 4.8158 -0.0000 -0.0000 0.0000 84.3002 -4.6440 0.7456 -12.7018 20.8488 -2.3461 0.0000 -0.0000 -5.7063 -15.9650 -1.2715 0.3637 7.1250 -0.0000 -0.0000 8.4521 -31.2349 2.8717
-0.2620 17.9891 -22.9338 -1.0589 46.9964 0.7180 0.0000 0.0000 0.0000 -14.0144 -19.8654 -9.0009 1.9108 8.6778 24.7926 -0.0991 -13.0527 -7.8327 0.3107 -3.5832 -9.9068 0.0000 0.0000 0.0000 22.6674 -15.3980 -3.3360 -1.3243 -7.2879 20.5712 2.7971 -33.7305 -33.8697 -0.0290 -1.0985 3.0199 5.4305 9.5018 5.2906 0.0494 13.0383 -1.1799 -3.7695 6.3914 -2.9638 18.1210 20.1223 4.4624 -12.4478 29.2366 10.5343 -4.0659 14.7023 6.9564 -0.0000 0.0000 0.0000 -81.4347 4.6307 23.8729 16.7991 -26.5921 -3.9970 -0.0000 0.0000 -7.3954 9.3811 0.9543 0.1576 -7.1250 0.0000 -0.0000 -13.5834 30.7759 4.8416 -0.0000 0.0000 0.0000 84.3756 -4.6277 0.7006 -12.7146 20.8677 -2.3507 0.0000 -0.0000 -5.7507 -15.7815 -1.3492 0.3813 7.1250 -0.0000 -0.0000 8.6051 -31.3113 2.9088
-0.2601 17.9897 -22.9326 -1.0542 46.9550 0.7334 0.0000 0.0000 0.0000 -14.0180 -19.8335 -9.0045 1.9105 8.6770 24.7902 -0.0963 -13.0274 -7.8509 0.3119 -3.5904 -9.9272 0.0000 0.0000 0.0000 22.6571 -15.3858 -3.3346 -1.3234 -7.2855 20.5641 2.7978 -33.7191 -33.8392 -0.0284 -1.0873 2.9889 5.3992 9.4822 5.2806 0.0541 13.0096 -1.1777 -3.7462 6.3777 -2.9665 18.0858 20.1314 4.4261 -12.4557 29.2488 10.5624 -4.0575 14.7050 6.9692 -0.0000 0.0000 0.0000 -81.5008 4.6799 23.8406 16.7416 -26.5159 -3.9713 -0.0000 0.0000 -7.3675 9.2739 0.9912 0.1618 -7.1250 0.0000 -0.0000 -13.6720 30.8097 4.8635 -0.0000 0.0000 0.0000 84.4274 -4.6024 0.7084 -12.7257 20.8840 -2.3546 0.0000 -0.0000 -5.7893 -15.6370 -1.3919 0.3896 7.1250 -0.0000 -0.0000 8.7238 -31.3521 2.9411
